<mxfile host="www.draw.io" modified="2020-02-25T08:03:33.758Z" agent="Mozilla/5.0 (Windows NT 10.0; Win64; x64; rv:73.0) Gecko/20100101 Firefox/73.0" etag="kYSJowUu3ZL_6sR2N1zG" version="12.7.4" type="github">
  <diagram id="9c2hLpqmmBPukcIzsX5s" name="Page-1">
    <mxGraphModel dx="682" dy="526" grid="1" gridSize="10" guides="1" tooltips="1" connect="1" arrows="1" fold="1" page="1" pageScale="1" pageWidth="400" pageHeight="300" math="0" shadow="0">
      <root>
        <mxCell id="0" />
        <mxCell id="1" parent="0" />
        <mxCell id="w2xwYhmTxqfivKCFTQLF-1" value="Labels" style="" parent="0" />
        <mxCell id="w2xwYhmTxqfivKCFTQLF-2" value="" style="shape=rect;dashed=1;strokeColor=#0079D6;fillColor=none;fontSize=14;fontColor=#0078D7;align=center;html=1;dashPattern=1 4;rotation=90;" vertex="1" parent="w2xwYhmTxqfivKCFTQLF-1">
          <mxGeometry x="338.64" y="224.22000000000003" width="131.22" height="34.25" as="geometry" />
        </mxCell>
        <mxCell id="w2xwYhmTxqfivKCFTQLF-3" value="" style="edgeStyle=none;endArrow=none;dashed=1;html=1;strokeColor=#000000;entryX=0.5;entryY=0;entryDx=0;entryDy=0;" edge="1" parent="w2xwYhmTxqfivKCFTQLF-1" source="w2xwYhmTxqfivKCFTQLF-10" target="w2xwYhmTxqfivKCFTQLF-2">
          <mxGeometry x="1" relative="1" as="geometry">
            <mxPoint x="593.17" y="232.84000000000003" as="targetPoint" />
            <mxPoint x="668.17" y="182.84" as="sourcePoint" />
          </mxGeometry>
        </mxCell>
        <mxCell id="w2xwYhmTxqfivKCFTQLF-4" value="Control panel power, PWR switch, rear LED data" style="shape=note;size=15;align=left;spacingLeft=10;html=1;whiteSpace=wrap;shadow=0;glass=0;dashed=1;strokeColor=#007FFF;fillColor=none;fontSize=10;" vertex="1" parent="w2xwYhmTxqfivKCFTQLF-1">
          <mxGeometry x="441.91" y="97.27000000000001" width="127.95" height="39.36" as="geometry" />
        </mxCell>
        <mxCell id="w2xwYhmTxqfivKCFTQLF-5" value="" style="edgeStyle=none;endArrow=none;dashed=1;html=1;strokeColor=#000000;entryX=0.5;entryY=0;entryDx=0;entryDy=0;" edge="1" parent="w2xwYhmTxqfivKCFTQLF-1" source="w2xwYhmTxqfivKCFTQLF-4" target="w2xwYhmTxqfivKCFTQLF-6">
          <mxGeometry x="1" relative="1" as="geometry">
            <mxPoint x="494.41999999999985" y="280.0749999999998" as="targetPoint" />
            <mxPoint x="575.0661208498668" y="204.745" as="sourcePoint" />
          </mxGeometry>
        </mxCell>
        <mxCell id="w2xwYhmTxqfivKCFTQLF-6" value="" style="shape=rect;dashed=1;strokeColor=#0079D6;fillColor=none;fontSize=14;fontColor=#0078D7;align=center;html=1;dashPattern=1 4;rotation=90;" vertex="1" parent="w2xwYhmTxqfivKCFTQLF-1">
          <mxGeometry x="340.47" y="92.29000000000002" width="126.44" height="42.49" as="geometry" />
        </mxCell>
        <mxCell id="w2xwYhmTxqfivKCFTQLF-7" value="" style="shape=rect;dashed=1;strokeColor=#0079D6;fillColor=none;fontSize=14;fontColor=#0078D7;align=center;html=1;dashPattern=1 4;rotation=90;" vertex="1" parent="w2xwYhmTxqfivKCFTQLF-1">
          <mxGeometry x="382.85999999999996" y="7.630000000000003" width="39.37" height="42.27" as="geometry" />
        </mxCell>
        <mxCell id="w2xwYhmTxqfivKCFTQLF-8" value="12V DC input power" style="shape=note;size=15;align=left;spacingLeft=10;html=1;whiteSpace=wrap;shadow=0;glass=0;dashed=1;strokeColor=#007FFF;fillColor=none;fontSize=10;" vertex="1" parent="w2xwYhmTxqfivKCFTQLF-1">
          <mxGeometry x="451.76000000000005" y="8.680000000000007" width="127.95" height="29.53" as="geometry" />
        </mxCell>
        <mxCell id="w2xwYhmTxqfivKCFTQLF-9" value="" style="edgeStyle=none;endArrow=none;dashed=1;html=1;strokeColor=#000000;" edge="1" parent="w2xwYhmTxqfivKCFTQLF-1" source="w2xwYhmTxqfivKCFTQLF-8" target="w2xwYhmTxqfivKCFTQLF-7">
          <mxGeometry x="1" relative="1" as="geometry">
            <mxPoint x="519.8575" y="77.58250000000007" as="targetPoint" />
            <mxPoint x="574.6624999999998" y="87.22628759654694" as="sourcePoint" />
          </mxGeometry>
        </mxCell>
        <mxCell id="w2xwYhmTxqfivKCFTQLF-10" value="&lt;div style=&quot;font-size: 10px;&quot;&gt;Rear LED Strip connectors&lt;/div&gt;" style="shape=note;size=15;align=left;spacingLeft=10;html=1;whiteSpace=wrap;shadow=0;glass=0;dashed=1;strokeColor=#007FFF;fillColor=none;fontSize=10;" vertex="1" parent="w2xwYhmTxqfivKCFTQLF-1">
          <mxGeometry x="461.6" y="225.22000000000003" width="108.27" height="29.53" as="geometry" />
        </mxCell>
        <mxCell id="w2xwYhmTxqfivKCFTQLF-11" value="Package" style="" parent="0" />
        <mxCell id="w2xwYhmTxqfivKCFTQLF-12" value="" style="rounded=0;whiteSpace=wrap;html=1;shadow=0;glass=0;fillColor=none;dashed=1;movable=1;resizable=1;rotatable=1;deletable=1;editable=1;connectable=1;fontStyle=0" vertex="1" parent="w2xwYhmTxqfivKCFTQLF-11">
          <mxGeometry width="511.81" height="314.8" as="geometry" />
        </mxCell>
        <mxCell id="w2xwYhmTxqfivKCFTQLF-13" style="" parent="0" />
        <mxCell id="w2xwYhmTxqfivKCFTQLF-14" value="" style="group" vertex="1" connectable="0" parent="w2xwYhmTxqfivKCFTQLF-13">
          <mxGeometry x="19.689999999999998" y="41.629999999999995" width="196.85" height="236.22" as="geometry" />
        </mxCell>
        <mxCell id="w2xwYhmTxqfivKCFTQLF-15" value="&lt;div&gt;Voltage regulator&lt;/div&gt;&lt;div&gt;10A, fused,&lt;br&gt;&lt;/div&gt;&lt;div&gt;12V -&amp;gt; 5V&lt;/div&gt;" style="rounded=0;whiteSpace=wrap;html=1;" vertex="1" parent="w2xwYhmTxqfivKCFTQLF-14">
          <mxGeometry width="196.85" height="236.22" as="geometry" />
        </mxCell>
        <mxCell id="w2xwYhmTxqfivKCFTQLF-16" value="&lt;div&gt;Vin, GND&lt;/div&gt;" style="rounded=0;whiteSpace=wrap;html=1;rotation=0;" vertex="1" parent="w2xwYhmTxqfivKCFTQLF-14">
          <mxGeometry x="110.16" y="5.189999999999962" width="40.13" height="37.5" as="geometry" />
        </mxCell>
        <mxCell id="w2xwYhmTxqfivKCFTQLF-17" value="&lt;div&gt;Vout, GND&lt;/div&gt;" style="rounded=0;whiteSpace=wrap;html=1;rotation=0;" vertex="1" parent="w2xwYhmTxqfivKCFTQLF-14">
          <mxGeometry x="110.16" y="193.67" width="40.13" height="37.5" as="geometry" />
        </mxCell>
        <mxCell id="w2xwYhmTxqfivKCFTQLF-18" value="" style="edgeStyle=orthogonalEdgeStyle;rounded=0;orthogonalLoop=1;jettySize=auto;html=1;endArrow=oval;endFill=1;exitX=0;exitY=0.5;exitDx=0;exitDy=0;fillColor=#f8cecc;strokeColor=#CC0000;entryX=0;entryY=0.5;entryDx=0;entryDy=0;entryPerimeter=0;exitPerimeter=0;" edge="1" parent="w2xwYhmTxqfivKCFTQLF-13" source="w2xwYhmTxqfivKCFTQLF-47" target="w2xwYhmTxqfivKCFTQLF-33">
          <mxGeometry relative="1" as="geometry">
            <mxPoint x="225" y="193.84" as="targetPoint" />
            <Array as="points">
              <mxPoint x="245" y="281.84000000000003" />
            </Array>
          </mxGeometry>
        </mxCell>
        <mxCell id="w2xwYhmTxqfivKCFTQLF-19" value="" style="edgeStyle=orthogonalEdgeStyle;rounded=0;orthogonalLoop=1;jettySize=auto;html=1;startArrow=oval;startFill=1;endArrow=none;endFill=0;exitX=0.5;exitY=1;exitDx=0;exitDy=0;entryX=1;entryY=0.5;entryDx=0;entryDy=0;entryPerimeter=0;" edge="1" parent="w2xwYhmTxqfivKCFTQLF-13" source="w2xwYhmTxqfivKCFTQLF-40" target="w2xwYhmTxqfivKCFTQLF-47">
          <mxGeometry relative="1" as="geometry">
            <mxPoint x="284" y="286.84000000000003" as="targetPoint" />
            <Array as="points">
              <mxPoint x="373" y="213.84" />
              <mxPoint x="373" y="308.84000000000003" />
              <mxPoint x="178" y="308.84000000000003" />
            </Array>
            <mxPoint x="334" y="158.84" as="sourcePoint" />
          </mxGeometry>
        </mxCell>
        <mxCell id="w2xwYhmTxqfivKCFTQLF-20" value="" style="edgeStyle=orthogonalEdgeStyle;rounded=0;orthogonalLoop=1;jettySize=auto;html=1;startArrow=oval;startFill=1;endArrow=none;endFill=0;exitX=0.5;exitY=1;exitDx=0;exitDy=0;entryX=1;entryY=0.5;entryDx=0;entryDy=0;entryPerimeter=0;" edge="1" parent="w2xwYhmTxqfivKCFTQLF-13" source="w2xwYhmTxqfivKCFTQLF-41" target="w2xwYhmTxqfivKCFTQLF-47">
          <mxGeometry relative="1" as="geometry">
            <mxPoint x="284" y="286.84000000000003" as="targetPoint" />
            <Array as="points">
              <mxPoint x="383" y="275.84000000000003" />
              <mxPoint x="383" y="308.84000000000003" />
              <mxPoint x="178" y="308.84000000000003" />
            </Array>
          </mxGeometry>
        </mxCell>
        <mxCell id="w2xwYhmTxqfivKCFTQLF-21" value="" style="edgeStyle=orthogonalEdgeStyle;rounded=0;orthogonalLoop=1;jettySize=auto;html=1;startArrow=oval;startFill=1;endArrow=oval;endFill=1;exitX=0.25;exitY=1;exitDx=0;exitDy=0;entryX=1;entryY=0.5;entryDx=0;entryDy=0;entryPerimeter=0;" edge="1" parent="w2xwYhmTxqfivKCFTQLF-13" source="w2xwYhmTxqfivKCFTQLF-42" target="w2xwYhmTxqfivKCFTQLF-47">
          <mxGeometry relative="1" as="geometry">
            <mxPoint x="284" y="286.84000000000003" as="targetPoint" />
            <Array as="points">
              <mxPoint x="363" y="106.84" />
              <mxPoint x="363" y="308.84000000000003" />
              <mxPoint x="178" y="308.84000000000003" />
            </Array>
          </mxGeometry>
        </mxCell>
        <mxCell id="w2xwYhmTxqfivKCFTQLF-22" value="" style="edgeStyle=orthogonalEdgeStyle;rounded=0;orthogonalLoop=1;jettySize=auto;html=1;endArrow=oval;endFill=1;fontSize=10;fillColor=#e3c800;strokeColor=#B09500;entryX=1;entryY=0.5;entryDx=0;entryDy=0;exitX=0.75;exitY=1;exitDx=0;exitDy=0;" edge="1" parent="w2xwYhmTxqfivKCFTQLF-13" source="w2xwYhmTxqfivKCFTQLF-39" target="w2xwYhmTxqfivKCFTQLF-26">
          <mxGeometry relative="1" as="geometry">
            <mxPoint x="596.91" y="129.79" as="sourcePoint" />
            <mxPoint x="590" y="178.84" as="targetPoint" />
            <Array as="points">
              <mxPoint x="363" y="43.84" />
              <mxPoint x="363" y="53.84" />
            </Array>
          </mxGeometry>
        </mxCell>
        <mxCell id="w2xwYhmTxqfivKCFTQLF-23" style="edgeStyle=orthogonalEdgeStyle;rounded=0;orthogonalLoop=1;jettySize=auto;html=1;entryX=0.25;entryY=1;entryDx=0;entryDy=0;endArrow=oval;endFill=1;strokeColor=#000000;fontSize=10;exitX=0.75;exitY=0;exitDx=0;exitDy=0;" edge="1" parent="w2xwYhmTxqfivKCFTQLF-13" source="w2xwYhmTxqfivKCFTQLF-26" target="w2xwYhmTxqfivKCFTQLF-39">
          <mxGeometry relative="1" as="geometry">
            <mxPoint x="570" y="182.06" as="sourcePoint" />
            <Array as="points">
              <mxPoint x="312" y="11.840000000000003" />
              <mxPoint x="383" y="11.840000000000003" />
              <mxPoint x="383" y="21.840000000000003" />
            </Array>
          </mxGeometry>
        </mxCell>
        <mxCell id="w2xwYhmTxqfivKCFTQLF-24" style="edgeStyle=orthogonalEdgeStyle;rounded=0;orthogonalLoop=1;jettySize=auto;html=1;exitX=0;exitY=0.25;exitDx=0;exitDy=0;entryX=0.5;entryY=0;entryDx=0;entryDy=0;endArrow=oval;endFill=1;fontSize=10;fillColor=#e3c800;strokeColor=#B09500;" edge="1" parent="w2xwYhmTxqfivKCFTQLF-13" source="w2xwYhmTxqfivKCFTQLF-26" target="w2xwYhmTxqfivKCFTQLF-16">
          <mxGeometry relative="1" as="geometry">
            <Array as="points">
              <mxPoint x="245" y="38.84" />
              <mxPoint x="245" y="20.840000000000003" />
              <mxPoint x="152" y="20.840000000000003" />
              <mxPoint x="152" y="46.84" />
            </Array>
          </mxGeometry>
        </mxCell>
        <mxCell id="w2xwYhmTxqfivKCFTQLF-25" style="edgeStyle=orthogonalEdgeStyle;rounded=0;orthogonalLoop=1;jettySize=auto;html=1;entryX=0.25;entryY=1;entryDx=0;entryDy=0;endArrow=oval;endFill=1;strokeColor=#000000;fontSize=10;" edge="1" parent="w2xwYhmTxqfivKCFTQLF-13" source="w2xwYhmTxqfivKCFTQLF-16" target="w2xwYhmTxqfivKCFTQLF-39">
          <mxGeometry relative="1" as="geometry">
            <mxPoint x="304" y="34.370000000000005" as="sourcePoint" />
            <Array as="points">
              <mxPoint x="147" y="11.840000000000003" />
              <mxPoint x="383" y="11.840000000000003" />
              <mxPoint x="383" y="21.840000000000003" />
            </Array>
          </mxGeometry>
        </mxCell>
        <mxCell id="w2xwYhmTxqfivKCFTQLF-26" value="Relay DC12V" style="rounded=0;whiteSpace=wrap;html=1;rotation=0;fontSize=9;" vertex="1" parent="w2xwYhmTxqfivKCFTQLF-13">
          <mxGeometry x="254.89999999999998" y="23.689999999999998" width="75.59039999999999" height="60.629799999999996" as="geometry" />
        </mxCell>
        <mxCell id="w2xwYhmTxqfivKCFTQLF-27" value="" style="edgeStyle=orthogonalEdgeStyle;rounded=0;orthogonalLoop=1;jettySize=auto;html=1;endArrow=oval;endFill=1;fontSize=10;fillColor=#e3c800;strokeColor=#B09500;entryX=0.75;entryY=1;entryDx=0;entryDy=0;exitX=0.75;exitY=1;exitDx=0;exitDy=0;" edge="1" parent="w2xwYhmTxqfivKCFTQLF-13" source="w2xwYhmTxqfivKCFTQLF-26" target="w2xwYhmTxqfivKCFTQLF-43">
          <mxGeometry relative="1" as="geometry">
            <mxPoint x="314" y="99.84" as="sourcePoint" />
            <mxPoint x="598.4067499999999" y="434.90499999999975" as="targetPoint" />
            <Array as="points">
              <mxPoint x="312" y="90.84" />
              <mxPoint x="389" y="90.84" />
            </Array>
          </mxGeometry>
        </mxCell>
        <mxCell id="w2xwYhmTxqfivKCFTQLF-28" style="edgeStyle=orthogonalEdgeStyle;rounded=0;orthogonalLoop=1;jettySize=auto;html=1;exitX=0;exitY=0.5;exitDx=0;exitDy=0;exitPerimeter=0;startArrow=oval;startFill=1;endArrow=none;endFill=0;strokeColor=#000000;fontSize=9;entryX=0.25;entryY=1;entryDx=0;entryDy=0;" edge="1" parent="w2xwYhmTxqfivKCFTQLF-13" source="w2xwYhmTxqfivKCFTQLF-29" target="w2xwYhmTxqfivKCFTQLF-39">
          <mxGeometry relative="1" as="geometry">
            <Array as="points">
              <mxPoint x="353" y="11.840000000000003" />
              <mxPoint x="383" y="11.840000000000003" />
              <mxPoint x="383" y="21.840000000000003" />
            </Array>
          </mxGeometry>
        </mxCell>
        <mxCell id="w2xwYhmTxqfivKCFTQLF-29" value="" style="pointerEvents=1;fillColor=#000000;verticalLabelPosition=bottom;shadow=0;dashed=0;align=center;html=1;verticalAlign=top;shape=mxgraph.electrical.diodes.diode;fontSize=8;flipH=1;rotation=-90;" vertex="1" parent="w2xwYhmTxqfivKCFTQLF-13">
          <mxGeometry x="341.04999999999995" y="38.03000000000003" width="23.622" height="11.811" as="geometry" />
        </mxCell>
        <mxCell id="w2xwYhmTxqfivKCFTQLF-30" value="" style="edgeStyle=orthogonalEdgeStyle;rounded=0;orthogonalLoop=1;jettySize=auto;html=1;endArrow=oval;endFill=1;fontSize=10;fillColor=#e3c800;strokeColor=#000000;entryX=0.75;entryY=1;entryDx=0;entryDy=0;exitX=1;exitY=0.5;exitDx=0;exitDy=0;exitPerimeter=0;" edge="1" parent="w2xwYhmTxqfivKCFTQLF-13" source="w2xwYhmTxqfivKCFTQLF-29" target="w2xwYhmTxqfivKCFTQLF-26">
          <mxGeometry relative="1" as="geometry">
            <mxPoint x="599" y="191.84" as="sourcePoint" />
            <mxPoint x="530.4925000000001" y="204.59799999999996" as="targetPoint" />
            <Array as="points">
              <mxPoint x="353" y="90.84" />
              <mxPoint x="312" y="90.84" />
            </Array>
          </mxGeometry>
        </mxCell>
        <mxCell id="w2xwYhmTxqfivKCFTQLF-31" value="&lt;div style=&quot;font-size: 10px;&quot;&gt;5A&lt;/div&gt;" style="pointerEvents=1;verticalLabelPosition=middle;shadow=0;dashed=0;align=center;fillColor=#ffffff;html=1;verticalAlign=middle;strokeWidth=1;shape=mxgraph.electrical.miscellaneous.fuse_2;rotation=0;labelPosition=center;fontSize=10;" vertex="1" parent="w2xwYhmTxqfivKCFTQLF-13">
          <mxGeometry x="245.06499999999988" y="109.34" width="88.9762" height="35.433" as="geometry" />
        </mxCell>
        <mxCell id="w2xwYhmTxqfivKCFTQLF-32" value="2,5A" style="pointerEvents=1;verticalLabelPosition=middle;shadow=0;dashed=0;align=center;fillColor=#ffffff;html=1;verticalAlign=middle;strokeWidth=1;shape=mxgraph.electrical.miscellaneous.fuse_2;rotation=0;fontSize=9;labelPosition=center;" vertex="1" parent="w2xwYhmTxqfivKCFTQLF-13">
          <mxGeometry x="245.06499999999988" y="174.70000000000002" width="88.9762" height="35.433" as="geometry" />
        </mxCell>
        <mxCell id="w2xwYhmTxqfivKCFTQLF-33" value="2,5A" style="pointerEvents=1;verticalLabelPosition=middle;shadow=0;dashed=0;align=center;fillColor=#ffffff;html=1;verticalAlign=middle;strokeWidth=1;shape=mxgraph.electrical.miscellaneous.fuse_2;rotation=0;fontSize=10;labelPosition=center;" vertex="1" parent="w2xwYhmTxqfivKCFTQLF-13">
          <mxGeometry x="245.06499999999988" y="242.42000000000007" width="88.9762" height="35.433" as="geometry" />
        </mxCell>
        <mxCell id="w2xwYhmTxqfivKCFTQLF-34" value="" style="endArrow=oval;html=1;exitX=0;exitY=0.5;exitDx=0;exitDy=0;exitPerimeter=0;entryX=0;entryY=0.5;entryDx=0;entryDy=0;entryPerimeter=0;startArrow=oval;startFill=1;endFill=1;strokeColor=#CC0000;" edge="1" parent="w2xwYhmTxqfivKCFTQLF-13" source="w2xwYhmTxqfivKCFTQLF-31" target="w2xwYhmTxqfivKCFTQLF-33">
          <mxGeometry width="50" height="50" relative="1" as="geometry">
            <mxPoint x="313.7449999999999" y="267.96000000000004" as="sourcePoint" />
            <mxPoint x="323.7449999999999" y="258.96000000000004" as="targetPoint" />
            <Array as="points" />
          </mxGeometry>
        </mxCell>
        <mxCell id="w2xwYhmTxqfivKCFTQLF-35" value="" style="edgeStyle=orthogonalEdgeStyle;rounded=0;orthogonalLoop=1;jettySize=auto;html=1;startArrow=oval;startFill=1;endArrow=none;endFill=0;exitX=0.189;exitY=1.014;exitDx=0;exitDy=0;entryX=1;entryY=0.5;entryDx=0;entryDy=0;entryPerimeter=0;strokeColor=#CC0000;exitPerimeter=0;" edge="1" parent="w2xwYhmTxqfivKCFTQLF-13" source="w2xwYhmTxqfivKCFTQLF-40" target="w2xwYhmTxqfivKCFTQLF-32">
          <mxGeometry relative="1" as="geometry">
            <mxPoint x="306.7449999999999" y="119.64000000000001" as="targetPoint" />
            <mxPoint x="415.7449999999999" y="120.64000000000001" as="sourcePoint" />
            <Array as="points">
              <mxPoint x="334" y="193.84" />
            </Array>
          </mxGeometry>
        </mxCell>
        <mxCell id="w2xwYhmTxqfivKCFTQLF-36" value="" style="endArrow=oval;html=1;exitX=0;exitY=0.5;exitDx=0;exitDy=0;exitPerimeter=0;entryX=0;entryY=0.5;entryDx=0;entryDy=0;entryPerimeter=0;endFill=1;strokeColor=#CC0000;" edge="1" parent="w2xwYhmTxqfivKCFTQLF-13" source="w2xwYhmTxqfivKCFTQLF-33" target="w2xwYhmTxqfivKCFTQLF-32">
          <mxGeometry width="50" height="50" relative="1" as="geometry">
            <mxPoint x="325.7449999999999" y="194.96" as="sourcePoint" />
            <mxPoint x="275.7449999999999" y="144.96" as="targetPoint" />
          </mxGeometry>
        </mxCell>
        <mxCell id="w2xwYhmTxqfivKCFTQLF-37" value="" style="edgeStyle=orthogonalEdgeStyle;rounded=0;orthogonalLoop=1;jettySize=auto;html=1;startArrow=oval;startFill=1;endArrow=none;endFill=0;entryX=1;entryY=0.5;entryDx=0;entryDy=0;entryPerimeter=0;strokeColor=#CC0000;exitX=0.25;exitY=1;exitDx=0;exitDy=0;" edge="1" parent="w2xwYhmTxqfivKCFTQLF-13" source="w2xwYhmTxqfivKCFTQLF-41" target="w2xwYhmTxqfivKCFTQLF-33">
          <mxGeometry relative="1" as="geometry">
            <mxPoint x="387.72119999999995" y="229.2565000000002" as="targetPoint" />
            <Array as="points">
              <mxPoint x="334" y="260.84000000000003" />
            </Array>
            <mxPoint x="394.7449999999999" y="183.64000000000001" as="sourcePoint" />
          </mxGeometry>
        </mxCell>
        <mxCell id="w2xwYhmTxqfivKCFTQLF-38" style="edgeStyle=orthogonalEdgeStyle;rounded=0;orthogonalLoop=1;jettySize=auto;html=1;entryX=0.66;entryY=1.022;entryDx=0;entryDy=0;endArrow=oval;endFill=1;strokeColor=#CC0000;exitX=1;exitY=0.5;exitDx=0;exitDy=0;exitPerimeter=0;entryPerimeter=0;" edge="1" parent="w2xwYhmTxqfivKCFTQLF-13" source="w2xwYhmTxqfivKCFTQLF-31" target="w2xwYhmTxqfivKCFTQLF-42">
          <mxGeometry relative="1" as="geometry">
            <Array as="points">
              <mxPoint x="334" y="124.84" />
            </Array>
            <mxPoint x="363" y="119.84" as="sourcePoint" />
          </mxGeometry>
        </mxCell>
        <mxCell id="w2xwYhmTxqfivKCFTQLF-39" value="&lt;div style=&quot;font-size: 10px;&quot;&gt;Vin, GND&lt;/div&gt;" style="rounded=0;whiteSpace=wrap;html=1;rotation=90;fontSize=10;" vertex="1" parent="w2xwYhmTxqfivKCFTQLF-13">
          <mxGeometry x="382.8499999999998" y="17.690000000000026" width="43.306999999999995" height="29.9212" as="geometry" />
        </mxCell>
        <mxCell id="w2xwYhmTxqfivKCFTQLF-40" value="Rear LED 0" style="rounded=0;whiteSpace=wrap;html=1;rotation=90;fontSize=9;" vertex="1" parent="w2xwYhmTxqfivKCFTQLF-13">
          <mxGeometry x="373.00749999999994" y="198.36" width="62.992" height="29.9212" as="geometry" />
        </mxCell>
        <mxCell id="w2xwYhmTxqfivKCFTQLF-41" value="Rear LED 1" style="rounded=0;whiteSpace=wrap;html=1;rotation=90;fontSize=9;" vertex="1" parent="w2xwYhmTxqfivKCFTQLF-13">
          <mxGeometry x="373.00749999999994" y="261.36" width="62.992" height="29.9212" as="geometry" />
        </mxCell>
        <mxCell id="w2xwYhmTxqfivKCFTQLF-42" value="&lt;font style=&quot;font-size: 9px&quot;&gt;5V, GND&lt;/font&gt; &lt;font style=&quot;font-size: 8px&quot;&gt;(fr. panel)&lt;/font&gt;" style="rounded=0;whiteSpace=wrap;html=1;rotation=90;fontSize=9;" vertex="1" parent="w2xwYhmTxqfivKCFTQLF-13">
          <mxGeometry x="382.8499999999998" y="102.96000000000001" width="43.306999999999995" height="29.9212" as="geometry" />
        </mxCell>
        <mxCell id="w2xwYhmTxqfivKCFTQLF-43" value="Power switch" style="rounded=0;whiteSpace=wrap;html=1;rotation=90;fontSize=9;" vertex="1" parent="w2xwYhmTxqfivKCFTQLF-13">
          <mxGeometry x="382.84999999999985" y="60.37749999999991" width="43.306999999999995" height="29.9212" as="geometry" />
        </mxCell>
        <mxCell id="w2xwYhmTxqfivKCFTQLF-44" value="" style="edgeStyle=orthogonalEdgeStyle;rounded=0;orthogonalLoop=1;jettySize=auto;html=1;endArrow=oval;endFill=1;fontSize=10;fillColor=#e3c800;strokeColor=#B09500;exitX=0.75;exitY=1;exitDx=0;exitDy=0;entryX=0.25;entryY=1;entryDx=0;entryDy=0;" edge="1" parent="w2xwYhmTxqfivKCFTQLF-13" source="w2xwYhmTxqfivKCFTQLF-39" target="w2xwYhmTxqfivKCFTQLF-43">
          <mxGeometry relative="1" as="geometry">
            <mxPoint x="395.4378999999997" y="270.42734999999993" as="sourcePoint" />
            <mxPoint x="507.66290000000004" y="45.76384999999979" as="targetPoint" />
            <Array as="points">
              <mxPoint x="363" y="43.84" />
              <mxPoint x="363" y="64.84" />
              <mxPoint x="389" y="64.84" />
            </Array>
          </mxGeometry>
        </mxCell>
        <mxCell id="w2xwYhmTxqfivKCFTQLF-45" value="Rr. LED data" style="rounded=0;whiteSpace=wrap;html=1;rotation=90;fontSize=9;" vertex="1" parent="w2xwYhmTxqfivKCFTQLF-13">
          <mxGeometry x="382.84999999999985" y="144.77749999999983" width="43.306999999999995" height="29.9212" as="geometry" />
        </mxCell>
        <mxCell id="w2xwYhmTxqfivKCFTQLF-46" value="" style="edgeStyle=orthogonalEdgeStyle;rounded=0;orthogonalLoop=1;jettySize=auto;html=1;endArrow=oval;endFill=1;exitX=0;exitY=0.5;exitDx=0;exitDy=0;fillColor=#f8cecc;strokeColor=#CC0000;exitPerimeter=0;entryX=0.75;entryY=1;entryDx=0;entryDy=0;" edge="1" parent="w2xwYhmTxqfivKCFTQLF-13" source="w2xwYhmTxqfivKCFTQLF-47" target="w2xwYhmTxqfivKCFTQLF-17">
          <mxGeometry relative="1" as="geometry">
            <mxPoint x="149.91499999999996" y="272.80000000000007" as="targetPoint" />
            <Array as="points" />
            <mxPoint x="245.06499999999983" y="260.1365000000002" as="sourcePoint" />
          </mxGeometry>
        </mxCell>
        <mxCell id="w2xwYhmTxqfivKCFTQLF-47" value="1mF" style="pointerEvents=1;verticalLabelPosition=middle;shadow=0;dashed=0;align=right;html=1;verticalAlign=middle;shape=mxgraph.electrical.capacitors.capacitor_5;fillColor=#67AB9F;fontSize=8;labelPosition=left;rotation=90;" vertex="1" parent="w2xwYhmTxqfivKCFTQLF-13">
          <mxGeometry x="164.56" y="281.42999999999995" width="27.558999999999997" height="27.558999999999997" as="geometry" />
        </mxCell>
        <mxCell id="w2xwYhmTxqfivKCFTQLF-48" value="" style="edgeStyle=orthogonalEdgeStyle;rounded=0;orthogonalLoop=1;jettySize=auto;html=1;startArrow=oval;startFill=1;endArrow=none;endFill=0;exitX=0.25;exitY=1;exitDx=0;exitDy=0;entryX=1;entryY=0.5;entryDx=0;entryDy=0;entryPerimeter=0;" edge="1" parent="w2xwYhmTxqfivKCFTQLF-13" source="w2xwYhmTxqfivKCFTQLF-17" target="w2xwYhmTxqfivKCFTQLF-47">
          <mxGeometry relative="1" as="geometry">
            <mxPoint x="284" y="286.84000000000003" as="targetPoint" />
            <mxPoint x="139.88250000000005" y="272.79999999999995" as="sourcePoint" />
            <Array as="points">
              <mxPoint x="140" y="308.84000000000003" />
              <mxPoint x="178" y="308.84000000000003" />
            </Array>
          </mxGeometry>
        </mxCell>
      </root>
    </mxGraphModel>
  </diagram>
</mxfile>
